<?xml version="1.0" encoding="UTF-8"?>
<!-- Created with Inkscape (http://www.inkscape.org/) -->
<svg width="260" height="146" version="1.1" viewBox="0 0 243.75 136.87501" xmlns="http://www.w3.org/2000/svg" xmlns:cc="http://creativecommons.org/ns#" xmlns:dc="http://purl.org/dc/elements/1.1/" xmlns:rdf="http://www.w3.org/1999/02/22-rdf-syntax-ns#">
 <metadata>
  <rdf:RDF>
   <cc:Work rdf:about="">
    <dc:format>image/svg+xml</dc:format>
    <dc:type rdf:resource="http://purl.org/dc/dcmitype/StillImage"/>
    <dc:title/>
   </cc:Work>
  </rdf:RDF>
 </metadata>
 <g transform="translate(-1.6421e-6 -915.49)">
  <g transform="matrix(2.5871 0 0 2.5308 -355.04 -1854)">
   <polygon transform="matrix(.21462 0 0 .21462 93.881 1057.4)" points="259.58 381.63 313.07 322.16 313.07 381.63 355.82 381.63 355.82 213.16 202 381.63" fill="#e2001a"/>
   <polygon transform="matrix(.21462 0 0 .21462 93.881 1057.4)" points="414.01 214.92 372.92 214.92 372.92 386.51 568.72 172.28 510.35 172.28 414.01 279.66" fill="#0089d1"/>
   <polygon transform="matrix(.21462 0 0 .21462 93.881 1057.4)" points="517.54 402.23 596.59 314.72 596.59 381.63 641 381.63 641 204.27 558.7 294.37 558.68 206.15 359.26 424.27 417.3 424.28 517.54 313.25"/>
  </g>
 </g>
</svg>
